<svg width="170" height="34" viewBox="0 0 170 34" fill="none" xmlns="http://www.w3.org/2000/svg">
<g clip-path="url(#clip0_752_247)">
<path d="M66.0786 8.5H66.1776V9.34563L65.5025 9.43675C64.3615 9.60077 64.3615 9.80124 64.3615 12.3527V21.6291C64.3615 24.1805 64.3615 24.3919 65.4989 24.545L66.1776 24.6361V25.5146H59.0084V24.6471H59.0964L59.6138 24.5851H59.7092C60.8099 24.4211 60.8099 24.2206 60.8099 21.6692V17.2989H53.2921V21.6546C53.2921 24.1842 53.2921 24.3919 54.3928 24.5705L55.0935 24.6617V25.5146H47.939V24.6471H48.0307C48.515 24.5888 48.4159 24.6033 48.4526 24.5997L48.6434 24.5705C49.7441 24.4065 49.7441 24.206 49.7441 21.6546V12.3636C49.7441 9.81218 49.7441 9.60077 48.6434 9.44768L47.939 9.35656V8.5H55.1082V9.34563H55.0202L54.4478 9.41488H54.4074C53.3067 9.5789 53.3067 9.77937 53.3067 12.3308V15.9466H60.8429V12.3636C60.8429 9.81218 60.8429 9.60077 59.7422 9.44768L59.0377 9.35656V8.5H66.0786Z" fill="white"/>
<path d="M94.521 8.50001C94.9335 8.40305 95.3556 8.35171 95.7794 8.34692H95.8895C95.8895 8.36879 102.674 20.9293 102.674 20.9293V20.9584C102.674 20.9584 109.014 8.51459 109.014 8.51095C109.014 8.5073 109.058 8.51095 109.058 8.51095C109.482 8.39789 109.921 8.34633 110.36 8.35786H110.455C110.455 8.38702 111.23 22.3216 111.23 22.3216C111.332 24.2644 111.674 24.4065 112.374 24.5086L113.229 24.6471V25.5146H105.818V24.6471L106.742 24.5086C107.715 24.3373 107.975 24.2899 107.975 23.0506V22.6351L107.66 14.2517H107.627L102.402 25.2266H102.365C102.045 25.3506 101.711 25.4374 101.371 25.4854H101.298C101.298 25.4636 95.607 14.146 95.607 14.146L95.3098 22.6096V23.149C95.3098 24.2425 95.5703 24.2972 96.5426 24.4904L97.4745 24.6289V25.5146H91.6738V24.6507L92.4076 24.5086C93.0974 24.3664 93.435 24.2243 93.5597 22.5403C93.5597 22.5403 94.4183 8.78432 94.4366 8.51824L94.521 8.50001Z" fill="white"/>
<path d="M147.89 8.5H147.971V8.57654C148.23 9.94208 148.335 11.3322 148.283 12.7208V12.8083L147.182 12.9614C147.182 12.9395 147.164 12.8703 147.164 12.8703C146.503 9.66274 145.696 9.66274 143.062 9.66274H141.33V16.0086H142.97C145.267 16.0086 145.539 15.9758 145.663 14.9989L145.803 14.0221H146.658V19.2854H145.806C145.806 19.2599 145.663 18.3851 145.663 18.3851C145.498 17.3499 145.223 17.3499 143.073 17.3499H141.33V23.9655C142.139 24.1821 142.97 24.3044 143.807 24.33C147.351 24.33 147.791 22.646 148.257 20.8636L148.367 20.4445L149.468 20.6595C149.468 20.6814 149.468 20.7506 149.468 20.7506C149.395 22.3414 149.109 23.9153 148.617 25.4307C148.617 25.4307 148.598 25.4818 148.595 25.5H135.977V24.6471L136.67 24.556H136.766C137.797 24.3628 137.797 24.3628 137.797 21.64V12.3636C137.797 9.68825 137.797 9.6919 136.817 9.46955L136.674 9.44404L135.977 9.34563V8.5H147.89Z" fill="white"/>
<path d="M82.7065 8.49634H88.577V9.3529L87.9972 9.51692C87.3185 9.69917 86.9919 9.85955 86.9663 11.5544L86.8085 17.7909L86.7718 18.9828C86.5333 23.5536 84.2659 25.8791 80.0318 25.8791C74.7521 25.8791 72.1875 23.5026 72.1875 18.611V12.3381C72.1875 9.78665 72.1875 9.59711 71.0868 9.42215L70.3823 9.33467V8.49634H77.5516V9.34561L76.8508 9.43309C75.7501 9.59711 75.7501 9.79758 75.7501 12.349V19.9342C75.7501 22.6642 77.6506 24.494 80.4794 24.494C82.314 24.494 84.409 23.4333 84.7905 20.4554C84.8911 19.5843 84.9377 18.7078 84.93 17.831L84.8236 11.23C84.8236 9.6044 84.6291 9.58253 83.4954 9.40757L82.7616 9.32374L82.7065 8.49634Z" fill="white"/>
<path d="M127.208 16.2017H127.146L127.204 16.1798C129.38 15.4508 130.485 14.073 130.485 12.123C130.485 9.72463 128.602 8.51086 124.9 8.51086H117.166V9.35649L117.867 9.44761H117.955C118.982 9.6408 118.982 9.6408 118.982 12.3089V21.629C118.982 24.3226 118.982 24.3226 117.977 24.545L117.856 24.5705C117.856 24.5705 117.192 24.6507 117.166 24.6579V25.5145H123.924C128.753 25.5145 131.303 23.8233 131.303 20.6266C131.303 17.2478 128.169 16.4022 127.208 16.2017ZM122.515 9.84127C122.905 9.73493 123.307 9.68099 123.712 9.68089C125.671 9.68089 126.94 10.8801 126.94 12.739C126.94 15.5602 125.021 15.9247 123.352 15.9247H122.504L122.515 9.84127ZM124.489 24.3408C123.819 24.3336 123.154 24.2102 122.526 23.9763V17.0692H123.528C126.665 17.0692 127.784 19.0848 127.784 20.9656C127.773 23.1344 126.606 24.3263 124.489 24.3263V24.3408Z" fill="white"/>
<path d="M169.842 24.6251C169.56 24.6288 169.281 24.5736 169.022 24.4631C168.762 24.3525 168.529 24.1892 168.338 23.9836C166.639 21.855 164.856 18.4725 164.302 17.2587C165.274 16.7995 167.534 15.4362 167.534 12.8848C167.534 9.02844 164.251 8.53638 161.389 8.53638H153.915V9.382L154.594 9.47313C155.735 9.63715 155.735 9.79388 155.735 12.3891V21.629C155.735 24.1805 155.735 24.3919 154.634 24.545H154.528L154.018 24.6033H153.93V25.5145H161.07V24.647L160.365 24.5559C159.264 24.3919 159.264 24.1914 159.264 21.6399V18.2246H159.998C161.235 18.2246 161.499 18.7859 162.024 19.9049L162.471 20.8198L163.443 22.7043C164.089 23.9982 165.164 25.5145 167.674 25.5145H170.004V24.6434L169.842 24.6251ZM160.42 17.0473H159.264V9.84127C159.66 9.73396 160.069 9.68002 160.479 9.68089C162.614 9.68089 163.994 11.0805 163.994 13.2493C164.005 14.1751 164.005 17.0473 160.42 17.0473Z" fill="white"/>
<path d="M38.1981 6.24014C38.1973 6.71521 38.0548 7.1794 37.7885 7.57401C37.5223 7.96862 37.1442 8.27592 36.7021 8.45705C36.26 8.63819 35.7738 8.68502 35.3049 8.59164C34.836 8.49825 34.4055 8.26883 34.0679 7.93239C33.7303 7.59595 33.5006 7.16761 33.4081 6.70152C33.3155 6.23544 33.3641 5.75255 33.5478 5.31391C33.7314 4.87528 34.0419 4.5006 34.4399 4.23726C34.838 3.97393 35.3056 3.83376 35.7839 3.83448C36.4248 3.8364 37.0389 4.09071 37.4914 4.54165C37.9439 4.99259 38.1981 5.60338 38.1981 6.24014Z" fill="white"/>
<path d="M8.14872 21.6728V8.83895H11.9168V18.3158C14.58 16.1369 17.4128 14.171 20.3885 12.4365V4.3338H24.1493V10.4026C26.4526 9.25446 28.8291 8.25726 31.2635 7.41742C29.9755 5.56466 28.33 3.98442 26.4224 2.76838C24.5149 1.55234 22.3832 0.724711 20.1512 0.333498C17.9191 -0.0577155 15.6311 -0.00472052 13.4198 0.489408C11.2085 0.983537 9.11804 1.90896 7.2696 3.212C5.42116 4.51503 3.85157 6.16974 2.65189 8.08012C1.45222 9.9905 0.646332 12.1185 0.280993 14.3407C-0.0843462 16.5629 -0.00186709 18.8351 0.523646 21.0254C1.04916 23.2157 2.00724 25.2805 3.34232 27.1001C4.80948 25.1773 6.41588 23.3634 8.14872 21.6728Z" fill="white"/>
<path d="M31.5864 7.90946C28.9701 8.99411 26.4771 10.3516 24.1493 11.959V29.6661H20.3885V14.8166C15.2005 19.165 10.6069 24.8475 7.74512 31.2189C11.0166 33.3555 14.9265 34.3133 18.8229 33.9326C22.7192 33.5519 26.3664 31.8557 29.1562 29.1269C31.946 26.398 33.7097 22.8015 34.1533 18.9371C34.5969 15.0727 33.6935 11.174 31.5937 7.89124L31.5864 7.90946Z" fill="white"/>
</g>
<defs>
<clipPath id="clip0_752_247">
<rect width="170" height="34" fill="white"/>
</clipPath>
</defs>
</svg>
