<svg width="170" height="34" viewBox="0 0 170 34" fill="none" xmlns="http://www.w3.org/2000/svg">
<path d="M65.7051 8.44019H65.8036V9.28732L65.1318 9.37861C63.9962 9.54292 63.9962 9.74375 63.9962 12.2998V21.5927C63.9962 24.1487 63.9962 24.3605 65.1281 24.5138L65.8036 24.6051V25.4851H58.6687V24.6161H58.7564L59.2712 24.554H59.3662C60.4616 24.3897 60.4616 24.1888 60.4616 21.6328V17.2548H52.9798V21.6182C52.9798 24.1523 52.9798 24.3605 54.0752 24.5394L54.7726 24.6307V25.4851H47.6523V24.6161H47.7436C48.2256 24.5576 48.127 24.5722 48.1635 24.5686L48.3534 24.5394C49.4489 24.3751 49.4489 24.1742 49.4489 21.6182V12.3107C49.4489 9.7547 49.4489 9.54292 48.3534 9.38956L47.6523 9.29827V8.44019H54.7873V9.28732H54.6996L54.13 9.3567H54.0898C52.9944 9.52101 52.9944 9.72184 52.9944 12.2778V15.9001H60.4945V12.3107C60.4945 9.7547 60.4945 9.54292 59.399 9.38956L58.6979 9.29827V8.44019H65.7051Z" fill="#00285E"/>
<path d="M94.0112 8.44016C94.4218 8.34303 94.8418 8.29159 95.2637 8.2868H95.3732C95.3732 8.30871 102.125 20.8916 102.125 20.8916V20.9208C102.125 20.9208 108.434 8.45477 108.434 8.45112C108.434 8.44747 108.478 8.45112 108.478 8.45112C108.901 8.33786 109.337 8.28621 109.775 8.29776H109.869C109.869 8.32697 110.64 22.2864 110.64 22.2864C110.742 24.2326 111.082 24.375 111.779 24.4773L112.63 24.616V25.4851H105.254V24.616L106.174 24.4773C107.142 24.3057 107.401 24.2582 107.401 23.0167V22.6004L107.087 14.2021H107.054L101.855 25.1966H101.818C101.499 25.3208 101.167 25.4078 100.828 25.4559H100.755C100.755 25.434 95.0921 14.0962 95.0921 14.0962L94.7963 22.5749V23.1153C94.7963 24.2107 95.0556 24.2655 96.0232 24.459L96.9507 24.5978V25.4851H91.1777V24.6197L91.908 24.4773C92.5945 24.3349 92.9304 24.1925 93.0546 22.5055C93.0546 22.5055 93.909 8.72498 93.9273 8.45842L94.0112 8.44016Z" fill="#00285E"/>
<path d="M147.125 8.44019H147.206V8.51687C147.464 9.88483 147.568 11.2774 147.516 12.6686V12.7562L146.421 12.9095C146.421 12.8876 146.402 12.8183 146.402 12.8183C145.745 9.605 144.942 9.60499 142.32 9.60499H140.597V15.9621H142.229C144.514 15.9621 144.785 15.9293 144.909 14.9507L145.048 13.9721H145.898V19.2448H145.051C145.051 19.2192 144.909 18.3429 144.909 18.3429C144.745 17.3059 144.471 17.3059 142.331 17.3059H140.597V23.9332C141.401 24.1502 142.228 24.2727 143.061 24.2984C146.589 24.2984 147.027 22.6114 147.49 20.8259L147.6 20.406L148.695 20.6214C148.695 20.6433 148.695 20.7127 148.695 20.7127C148.623 22.3062 148.338 23.883 147.848 25.4011C147.848 25.4011 147.83 25.4522 147.826 25.4705H135.269V24.6161L135.959 24.5248H136.054C137.08 24.3312 137.08 24.3312 137.08 21.6036V12.3107C137.08 9.63055 137.08 9.63421 136.105 9.41147L135.963 9.38591L135.269 9.28732V8.44019H147.125Z" fill="#00285E"/>
<path d="M82.2535 8.43646H88.0958V9.29455L87.5188 9.45887C86.8433 9.64144 86.5183 9.8021 86.4928 11.5L86.3358 17.7476L86.2993 18.9417C86.0619 23.5206 83.8053 25.8502 79.5916 25.8502C74.3371 25.8502 71.7848 23.4694 71.7848 18.5692V12.2851C71.7848 9.72907 71.7848 9.5392 70.6894 9.36393L69.9883 9.27629V8.43646H77.1232V9.28725L76.4258 9.37488C75.3303 9.5392 75.3303 9.74003 75.3303 12.296V19.8947C75.3303 22.6296 77.2218 24.4626 80.037 24.4626C81.8628 24.4626 83.9477 23.4001 84.3275 20.4168C84.4276 19.5442 84.4739 18.6662 84.4662 17.7878L84.3603 11.175C84.3603 9.5465 84.1668 9.52459 83.0385 9.34932L82.3082 9.26534L82.2535 8.43646Z" fill="#00285E"/>
<path d="M126.542 16.1556H126.48L126.538 16.1337C128.703 15.4034 129.803 14.0232 129.803 12.0697C129.803 9.66704 127.929 8.45111 124.245 8.45111H116.548V9.29824L117.245 9.38953H117.333C118.355 9.58306 118.355 9.58306 118.355 12.2559V21.5926C118.355 24.2911 118.355 24.2911 117.355 24.5138L117.234 24.5394C117.234 24.5394 116.573 24.6197 116.548 24.627V25.4851H123.274C128.079 25.4851 130.617 23.7908 130.617 20.5885C130.617 17.2036 127.499 16.3565 126.542 16.1556ZM121.872 9.78389C122.259 9.67736 122.66 9.62332 123.062 9.62322C125.012 9.62322 126.275 10.8245 126.275 12.6868C126.275 15.513 124.366 15.8781 122.704 15.8781H121.861L121.872 9.78389ZM123.836 24.3093C123.169 24.302 122.508 24.1785 121.883 23.9442V17.0247H122.879C126.001 17.0247 127.115 19.0439 127.115 20.9281C127.104 23.1007 125.943 24.2947 123.836 24.2947V24.3093Z" fill="#00285E"/>
<path d="M168.972 24.5941C168.691 24.5978 168.413 24.5425 168.155 24.4318C167.897 24.3211 167.665 24.1574 167.474 23.9515C165.784 21.819 164.009 18.4305 163.458 17.2146C164.425 16.7545 166.675 15.3889 166.675 12.8329C166.675 8.96963 163.407 8.47668 160.559 8.47668H153.121V9.32382L153.796 9.4151C154.932 9.57942 154.932 9.73643 154.932 12.3363V21.5927C154.932 24.1487 154.932 24.3604 153.836 24.5138H153.73L153.223 24.5722H153.135V25.4851H160.241V24.616L159.54 24.5248C158.444 24.3604 158.444 24.1596 158.444 21.6036V18.1822H159.175C160.405 18.1822 160.668 18.7445 161.19 19.8655L161.636 20.782L162.603 22.6698C163.246 23.9661 164.316 25.4851 166.814 25.4851H169.132V24.6124L168.972 24.5941ZM159.595 17.0028H158.444V9.7839C158.838 9.6764 159.245 9.62237 159.653 9.62324C161.778 9.62324 163.151 11.0254 163.151 13.198C163.162 14.1255 163.162 17.0028 159.595 17.0028Z" fill="#00285E"/>
<path d="M37.9581 6.17625C37.9574 6.65217 37.8155 7.11719 37.5505 7.5125C37.2855 7.90781 36.9093 8.21566 36.4693 8.39712C36.0293 8.57858 35.5454 8.6255 35.0788 8.53194C34.6121 8.43839 34.1837 8.20856 33.8477 7.87152C33.5117 7.53448 33.2832 7.10538 33.191 6.63846C33.0989 6.17154 33.1473 5.68779 33.3301 5.24837C33.5129 4.80896 33.8219 4.43361 34.218 4.16981C34.6141 3.906 35.0795 3.76558 35.5555 3.7663C36.1933 3.76823 36.8045 4.02299 37.2548 4.47473C37.7052 4.92648 37.9581 5.53835 37.9581 6.17625Z" fill="#00285E"/>
<path d="M8.05284 21.6365V8.77974H11.8029V18.2735C14.4533 16.0907 17.2725 14.1213 20.234 12.3837V4.26656H23.9768V10.3462C26.2691 9.196 28.6342 8.19702 31.0569 7.35568C29.7751 5.49962 28.1375 3.91656 26.239 2.69836C24.3406 1.48015 22.2192 0.65104 19.9978 0.25913C17.7764 -0.132781 15.4994 -0.0796914 13.2987 0.415318C11.098 0.910328 9.01752 1.8374 7.17793 3.14276C5.33834 4.44812 3.77627 6.10578 2.58234 8.01956C1.38841 9.93335 0.586381 12.0652 0.222792 14.2913C-0.140797 16.5175 -0.0587134 18.7937 0.464282 20.9879C0.987278 23.1821 1.94077 25.2506 3.26945 27.0735C4.72959 25.1472 6.3283 23.3301 8.05284 21.6365Z" fill="#00285E"/>
<path d="M31.3779 7.84858C28.7742 8.93517 26.2931 10.295 23.9765 11.9053V29.644H20.2337V14.7681C15.0706 19.1242 10.499 24.8168 7.65088 31.1995C10.9067 33.34 14.7979 34.2995 18.6756 33.9181C22.5533 33.5368 26.183 31.8375 28.9594 29.1038C31.7358 26.3701 33.4911 22.7671 33.9326 18.8958C34.374 15.0246 33.4749 11.1189 31.3852 7.83032L31.3779 7.84858Z" fill="#00285E"/>
</svg>
